<?xml version="1.0" encoding="UTF-8"?>
<svg width="1636px" height="300px" viewBox="0 0 1636 300" version="1.1" xmlns="http://www.w3.org/2000/svg" xmlns:xlink="http://www.w3.org/1999/xlink">
    <title>Group 3</title>
    <g id="Page-1" stroke="none" stroke-width="1" fill="none" fill-rule="evenodd">
        <g id="Group-3">
            <g id="Group">
                <path d="M300,125 L300,260 C300,282.09139 282.09139,300 260,300 L40,300 C17.90861,300 -1.15054397e-14,282.09139 0,260 L0,125 L300,125 Z M177.223766,154.027806 C162.144051,138.948091 137.855795,138.948246 122.776234,154.027806 C107.741067,169.062974 107.741222,193.439706 122.776389,208.474874 C125.75722,211.455704 129.106188,213.843184 132.675729,215.642263 L132.675729,215.642263 L132.675729,265.697203 C132.675884,267.089474 133.229018,268.424978 134.213554,269.409513 L134.213554,269.409513 L146.287689,281.483649 C148.337968,283.533927 151.662032,283.533927 153.712311,281.483649 L153.712311,281.483649 L171.036427,264.159533 C173.086705,262.109255 173.086705,258.78519 171.036427,256.734912 L171.036427,256.734912 L164.849242,250.547727 L171.036427,244.360543 C173.086705,242.310265 173.086705,238.9862 171.036427,236.935922 L171.036427,236.935922 L164.849242,230.748737 L170.606881,224.991098 C171.667303,223.930753 172.223646,222.467532 172.13558,220.970511 L172.13558,220.970511 L171.671232,213.07783 C173.627001,211.742945 175.488106,210.210379 177.223611,208.474874 C192.258778,193.439706 192.258933,169.062974 177.223766,154.027806 Z M142.575379,158.977399 C146.675935,154.876843 153.324065,154.876843 157.424621,158.977399 C161.525178,163.077955 161.525178,169.726085 157.424621,173.826641 C153.324065,177.927198 146.675935,177.927198 142.575379,173.826641 C138.474822,169.726085 138.474822,163.077955 142.575379,158.977399 Z" id="Combined-Shape" fill="#D9A500"></path>
                <path d="M276,125 L276,50 C276,36.1928813 264.807119,25 251,25 L51,25 C37.1928813,25 26,36.1928813 26,50 L26,125 L0,125 L0,40 C-1.15054397e-14,17.90861 17.90861,0 40,0 L40,0 L260,0 C282.09139,1.42108547e-14 300,17.90861 300,40 L300,40 L300,125 L276,125 Z" id="Combined-Shape" fill="#B3B3B3"></path>
            </g>
            <path d="M399.144,231 L399.144,175.336 L425.212,175.336 C440.5,175.336 452.194667,171.71 460.296,164.458 C468.397333,157.206 472.448,147.112 472.448,134.176 C472.448,121.370667 468.528,111.276667 460.688,103.894 C452.848,96.5113333 441.022667,92.82 425.212,92.82 L425.212,92.82 L381.308,92.82 L381.308,231 L399.144,231 Z M423.644,160.44 L399.144,160.44 L399.144,107.716 L423.644,107.716 C434.489333,107.716 442.296667,109.97 447.066,114.478 C451.835333,118.986 454.22,125.552 454.22,134.176 C454.22,142.538667 451.835333,149.006667 447.066,153.58 C442.296667,158.153333 434.489333,160.44 423.644,160.44 L423.644,160.44 Z M511.06,231 L511.06,174.356 C511.06,162.465333 514.261333,153.939333 520.664,148.778 C527.066667,143.616667 535.298667,141.036 545.36,141.036 L545.36,141.036 L550.848,141.036 L550.848,121.632 C541.44,121.632 533.338667,123.69 526.544,127.806 C519.749333,131.922 514.588,137.704 511.06,145.152 L511.06,145.152 L511.06,123.396 L493.224,123.396 L493.224,231 L511.06,231 Z M577.504,102.816 C581.162667,102.816 584.102667,101.803333 586.324,99.778 C588.545333,97.7526667 589.656,95.1066667 589.656,91.84 C589.656,88.5733333 588.545333,85.9273333 586.324,83.902 C584.102667,81.8766667 581.162667,80.864 577.504,80.864 C573.845333,80.864 570.905333,81.8766667 568.684,83.902 C566.462667,85.9273333 565.352,88.5733333 565.352,91.84 C565.352,95.1066667 566.462667,97.7526667 568.684,99.778 C570.905333,101.803333 573.845333,102.816 577.504,102.816 Z M586.324,231 L586.324,123.396 L568.488,123.396 L568.488,231 L586.324,231 Z M667.076,231 L709.216,123.396 L690.008,123.396 L656.688,211.988 L622.976,123.396 L603.768,123.396 L645.908,231 L667.076,231 Z M770.76,232.372 C781.213333,232.372 790.066,229.758667 797.318,224.532 C804.57,219.305333 809.633333,212.314667 812.508,203.56 L812.508,203.56 L812.508,231 L830.344,231 L830.344,123.396 L812.508,123.396 L812.508,150.836 C809.633333,142.081333 804.57,135.090667 797.318,129.864 C790.066,124.637333 781.213333,122.024 770.76,122.024 C761.221333,122.024 752.728,124.245333 745.28,128.688 C737.832,133.130667 731.984667,139.533333 727.738,147.896 C723.491333,156.258667 721.368,166.058667 721.368,177.296 C721.368,188.533333 723.491333,198.300667 727.738,206.598 C731.984667,214.895333 737.832,221.265333 745.28,225.708 C752.728,230.150667 761.221333,232.372 770.76,232.372 Z M775.856,216.692 C764.88,216.692 756.092667,213.196667 749.494,206.206 C742.895333,199.215333 739.596,189.578667 739.596,177.296 C739.596,165.013333 742.895333,155.376667 749.494,148.386 C756.092667,141.395333 764.88,137.9 775.856,137.9 C782.912,137.9 789.216667,139.500667 794.77,142.702 C800.323333,145.903333 804.668,150.509333 807.804,156.52 C810.94,162.530667 812.508,169.456 812.508,177.296 C812.508,185.136 810.94,192.028667 807.804,197.974 C804.668,203.919333 800.323333,208.525333 794.77,211.792 C789.216667,215.058667 782.912,216.692 775.856,216.692 Z M910.116,231 L910.116,215.32 L899.14,215.32 C892.868,215.32 888.458,214.046 885.91,211.498 C883.362,208.95 882.088,204.213333 882.088,197.288 L882.088,197.288 L882.088,138.88 L909.92,138.88 L909.92,123.396 L882.088,123.396 L882.088,96.544 L864.056,96.544 L864.056,123.396 L847.984,123.396 L847.984,138.88 L864.056,138.88 L864.056,196.896 C864.056,209.178667 866.767333,217.933333 872.19,223.16 C877.612667,228.386667 885.812,231 896.788,231 L896.788,231 L910.116,231 Z M979.5,232.372 C988.516,232.372 996.617333,230.738667 1003.804,227.472 C1010.99067,224.205333 1016.838,219.632 1021.346,213.752 C1025.854,207.872 1028.76133,201.208 1030.068,193.76 L1030.068,193.76 L1011.056,193.76 C1009.74933,201.077333 1006.18867,206.924667 1000.374,211.302 C994.559333,215.679333 987.34,217.868 978.716,217.868 C969.177333,217.868 961.108667,214.797333 954.51,208.656 C947.911333,202.514667 944.416,193.302667 944.024,181.02 L944.024,181.02 L1030.068,181.02 C1030.59067,178.276 1030.852,175.009333 1030.852,171.22 C1030.852,162.204 1028.794,153.972 1024.678,146.524 C1020.562,139.076 1014.61667,133.130667 1006.842,128.688 C999.067333,124.245333 989.953333,122.024 979.5,122.024 C969.177333,122.024 960.030667,124.245333 952.06,128.688 C944.089333,133.130667 937.85,139.533333 933.342,147.896 C928.834,156.258667 926.58,166.058667 926.58,177.296 C926.58,188.533333 928.834,198.300667 933.342,206.598 C937.85,214.895333 944.089333,221.265333 952.06,225.708 C960.030667,230.150667 969.177333,232.372 979.5,232.372 Z M1012.82,172.396 L944.024,172.396 C944.546667,160.636 948.14,151.718 954.804,145.642 C961.468,139.566 969.7,136.528 979.5,136.528 C985.641333,136.528 991.325333,137.834667 996.552,140.448 C1001.77867,143.061333 1005.89467,147.046667 1008.9,152.404 C1011.90533,157.761333 1013.212,164.425333 1012.82,172.396 L1012.82,172.396 Z M1072.012,231 L1072.012,166.516 L1129.636,231 L1151.588,231 L1088.476,161.224 L1151.588,92.82 L1129.832,92.82 L1072.012,156.912 L1072.012,92.82 L1054.176,92.82 L1054.176,231 L1072.012,231 Z M1216.856,232.372 C1225.872,232.372 1233.97333,230.738667 1241.16,227.472 C1248.34667,224.205333 1254.194,219.632 1258.702,213.752 C1263.21,207.872 1266.11733,201.208 1267.424,193.76 L1267.424,193.76 L1248.412,193.76 C1247.10533,201.077333 1243.54467,206.924667 1237.73,211.302 C1231.91533,215.679333 1224.696,217.868 1216.072,217.868 C1206.53333,217.868 1198.46467,214.797333 1191.866,208.656 C1185.26733,202.514667 1181.772,193.302667 1181.38,181.02 L1181.38,181.02 L1267.424,181.02 C1267.94667,178.276 1268.208,175.009333 1268.208,171.22 C1268.208,162.204 1266.15,153.972 1262.034,146.524 C1257.918,139.076 1251.97267,133.130667 1244.198,128.688 C1236.42333,124.245333 1227.30933,122.024 1216.856,122.024 C1206.53333,122.024 1197.38667,124.245333 1189.416,128.688 C1181.44533,133.130667 1175.206,139.533333 1170.698,147.896 C1166.19,156.258667 1163.936,166.058667 1163.936,177.296 C1163.936,188.533333 1166.19,198.300667 1170.698,206.598 C1175.206,214.895333 1181.44533,221.265333 1189.416,225.708 C1197.38667,230.150667 1206.53333,232.372 1216.856,232.372 Z M1250.176,172.396 L1181.38,172.396 C1181.90267,160.636 1185.496,151.718 1192.16,145.642 C1198.824,139.566 1207.056,136.528 1216.856,136.528 C1222.99733,136.528 1228.68133,137.834667 1233.908,140.448 C1239.13467,143.061333 1243.25067,147.046667 1246.256,152.404 C1249.26133,157.761333 1250.568,164.425333 1250.176,172.396 L1250.176,172.396 Z M1322.108,281.96 L1386.004,123.396 L1366.208,123.396 L1333.868,208.068 L1298.98,123.396 L1278.988,123.396 L1324.264,229.236 L1301.92,281.96 L1322.108,281.96 Z M1415.404,231 L1415.404,210.028 L1393.844,210.028 L1393.844,231 L1415.404,231 Z M1476.948,232.372 C1487.924,232.372 1496.71133,229.628 1503.31,224.14 C1509.90867,218.652 1513.208,211.530667 1513.208,202.776 C1513.208,195.72 1511.47667,190.101333 1508.014,185.92 C1504.55133,181.738667 1500.37,178.700667 1495.47,176.806 C1490.57,174.911333 1484.13467,173.049333 1476.164,171.22 C1469.892,169.782667 1464.95933,168.443333 1461.366,167.202 C1457.77267,165.960667 1454.76733,164.131333 1452.35,161.714 C1449.93267,159.296667 1448.724,156.128 1448.724,152.208 C1448.724,146.981333 1450.52067,142.832667 1454.114,139.762 C1457.70733,136.691333 1462.70533,135.156 1469.108,135.156 C1476.68667,135.156 1482.73,137.214 1487.238,141.33 C1491.746,145.446 1494.392,150.705333 1495.176,157.108 L1495.176,157.108 L1512.228,157.108 C1510.66,146.393333 1506.18467,137.867333 1498.802,131.53 C1491.41933,125.192667 1481.652,122.024 1469.5,122.024 C1458.00133,122.024 1448.92,124.800667 1442.256,130.354 C1435.592,135.907333 1432.26,143.192 1432.26,152.208 C1432.26,159.002667 1433.926,164.392667 1437.258,168.378 C1440.59,172.363333 1444.64067,175.270667 1449.41,177.1 C1454.17933,178.929333 1460.54933,180.758667 1468.52,182.588 C1474.92267,184.025333 1479.95333,185.397333 1483.612,186.704 C1487.27067,188.010667 1490.34133,189.905333 1492.824,192.388 C1495.30667,194.870667 1496.548,198.202667 1496.548,202.384 C1496.548,207.48 1494.81667,211.596 1491.354,214.732 C1487.89133,217.868 1483.08933,219.436 1476.948,219.436 C1468.716,219.436 1462.08467,217.410667 1457.054,213.36 C1452.02333,209.309333 1449.18133,204.017333 1448.528,197.484 L1448.528,197.484 L1431.28,197.484 C1432.71733,208.46 1437.48667,217.018667 1445.588,223.16 C1453.68933,229.301333 1464.14267,232.372 1476.948,232.372 Z M1554.956,231 L1554.956,173.964 C1554.956,161.812 1557.896,152.567333 1563.776,146.23 C1569.656,139.892667 1577.496,136.724 1587.296,136.724 C1596.704,136.724 1604.152,139.598667 1609.64,145.348 C1615.128,151.097333 1617.872,159.329333 1617.872,170.044 L1617.872,170.044 L1617.872,231 L1635.708,231 L1635.708,168.476 C1635.708,153.318667 1631.85333,141.722 1624.144,133.686 C1616.43467,125.65 1606.308,121.632 1593.764,121.632 C1584.61733,121.632 1576.54867,123.984 1569.558,128.688 C1562.56733,133.392 1557.7,140.121333 1554.956,148.876 L1554.956,148.876 L1554.956,85.96 L1537.12,85.96 L1537.12,231 L1554.956,231 Z" id="PrivateKey.sh" fill="#000000" fill-rule="nonzero"></path>
        </g>
    </g>
</svg>