<?xml version="1.0" standalone="no"?>
<!DOCTYPE svg PUBLIC "-//W3C//DTD SVG 20010904//EN"
 "http://www.w3.org/TR/2001/REC-SVG-20010904/DTD/svg10.dtd">
<svg version="1.0" xmlns="http://www.w3.org/2000/svg"
 width="1024.000000pt" height="1024.000000pt" viewBox="0 0 1024.000000 1024.000000"
 preserveAspectRatio="xMidYMid meet">
<metadata>
Created by potrace 1.14, written by Peter Selinger 2001-2017
</metadata>
<g transform="translate(0.000000,1024.000000) scale(0.100000,-0.100000)"
fill="#000000" stroke="none">
<path d="M1135 10220 c-518 -93 -938 -469 -1081 -970 -56 -196 -53 69 -51
-4155 2 -2145 6 -3916 10 -3935 4 -19 10 -46 13 -60 3 -14 8 -35 10 -48 11
-55 60 -193 97 -272 59 -126 139 -243 231 -340 203 -215 438 -348 726 -412
l105 -23 3925 0 3925 0 104 23 c135 31 223 62 346 123 256 128 486 363 609
624 57 120 80 186 109 315 l21 95 2 3910 c2 3770 2 3914 -16 4010 -71 380
-270 685 -592 908 -110 76 -330 171 -443 192 -59 10 -80 15 -105 22 -14 4
-1784 9 -3935 10 -3724 1 -3915 0 -4010 -17z m7574 -844 c325 -58 583 -292
684 -621 21 -70 21 -74 24 -1426 l4 -1355 -4266 0 -4265 -1 0 121 c-4 785 0
2522 5 2555 10 68 53 208 81 262 126 250 366 424 639 464 60 8 967 11 3570 9
1920 -1 3505 -5 3524 -8z m-3344 -4030 c267 -56 491 -175 680 -363 249 -246
387 -578 387 -928 0 -270 -73 -510 -223 -735 -66 -99 -220 -262 -301 -320
l-48 -33 6 -100 c15 -256 20 -241 -120 -385 -61 -62 -112 -115 -114 -116 -1
-2 46 -53 107 -113 118 -118 151 -167 151 -224 0 -63 -26 -103 -146 -223
l-117 -117 116 -117 c149 -150 172 -203 128 -297 -26 -55 -632 -659 -683 -680
-47 -19 -89 -19 -136 0 -50 21 -477 445 -503 500 -18 38 -19 81 -19 912 l0
871 -65 37 c-147 82 -265 187 -406 362 -23 28 -100 159 -126 213 -25 51 -71
172 -78 204 -2 11 -11 50 -19 86 -33 147 -38 360 -12 488 3 15 8 41 11 58 5
32 40 153 54 189 140 352 399 617 741 758 77 32 233 73 310 82 30 4 57 9 59
11 10 10 296 -6 366 -20z"/>
<path d="M5037 4909 c-276 -65 -367 -423 -156 -613 180 -163 465 -101 567 123
37 81 37 203 0 282 -44 96 -128 172 -220 200 -47 14 -146 18 -191 8z"/>
</g>
</svg>
